<svg xmlns="http://www.w3.org/2000/svg" viewBox="0 0 123 50">
    <defs>
        <linearGradient id="gradient" x1="0" x2="1" y1="0.678" y2="0.322">
            <stop offset="0" stop-color="rgb(138,78,207)" stop-opacity="1" />
            <stop offset="1" stop-color="rgb(110,240,255)" stop-opacity="1" />
        </linearGradient>
    </defs>
    <path
            d="M 62.32 1.097 L 76.49 1.097 L 76.49 49.258 L 62.32 49.258 Z M 108.732 49.258 L 122.902 49.258 L 122.902 1.097 L 108.732 1.097 Z M 46.51 1 L 46.51 34.032 C 46.51 34.387 46.215 34.677 45.854 34.677 C 45.494 34.677 45.198 34.387 45.198 34.032 L 45.198 14.387 C 45.198 -4.806 15.842 -4.806 15.842 14.387 L 15.842 34 C 15.842 34.355 15.547 34.645 15.186 34.645 C 14.826 34.645 14.53 34.355 14.53 34 L 14.53 1 L 0.098 1.065 L 0.098 35.774 C 0.098 54.484 29.848 54.871 29.848 36.161 L 29.848 16.065 C 29.848 15.71 30.143 15.419 30.504 15.419 C 30.865 15.419 31.16 15.71 31.16 16.065 L 31.16 36.226 C 31.16 54.839 60.942 54.484 60.942 35.774 L 60.942 1.065 Z M 93.48 16.839 L 93.48 34.548 C 101.057 34.548 107.223 28.516 107.223 21.032 L 107.223 14.677 C 107.223 7.484 101.582 1.097 93.546 1.097 L 77.998 1.097 L 77.998 49.194 L 92.168 49.258 L 92.168 16.839 C 92.168 16.484 92.43 16.161 92.758 16.161 C 93.185 16.129 93.48 16.452 93.48 16.839 Z"
            fill="url(#gradient)"
    />
</svg>
